<svg width="58" height="11" viewBox="0 0 58 11" fill="none" xmlns="http://www.w3.org/2000/svg">
<mask id="path-1-inside-1" fill="white">
<path d="M52.5384 1.10999C52.7092 0.69934 53.2909 0.699341 53.4617 1.10999L54.4698 3.5337C54.5418 3.70681 54.7046 3.8251 54.8915 3.84008L57.5081 4.04985C57.9514 4.08539 58.1312 4.63865 57.7934 4.92798L55.7998 6.63569C55.6574 6.75767 55.5953 6.94905 55.6388 7.13143L56.2478 9.68479C56.351 10.1174 55.8804 10.4593 55.5008 10.2275L53.2607 8.85921C53.1007 8.76148 52.8994 8.76148 52.7394 8.85921L50.4992 10.2275C50.1197 10.4593 49.6491 10.1174 49.7523 9.68479L50.3613 7.13143C50.4048 6.94905 50.3426 6.75767 50.2003 6.63569L48.2067 4.92798C47.8689 4.63865 48.0487 4.08539 48.492 4.04985L51.1086 3.84008C51.2955 3.8251 51.4583 3.70681 51.5303 3.5337L52.5384 1.10999Z"/>
<path d="M40.5384 1.10999C40.7092 0.69934 41.2909 0.699341 41.4617 1.10999L42.4698 3.5337C42.5418 3.70681 42.7046 3.8251 42.8915 3.84008L45.5081 4.04985C45.9514 4.08539 46.1312 4.63865 45.7934 4.92798L43.7998 6.63569C43.6574 6.75767 43.5953 6.94905 43.6388 7.13143L44.2478 9.68479C44.351 10.1174 43.8804 10.4593 43.5008 10.2275L41.2607 8.85921C41.1007 8.76148 40.8994 8.76148 40.7394 8.85921L38.4992 10.2275C38.1197 10.4593 37.6491 10.1174 37.7523 9.68479L38.3613 7.13143C38.4048 6.94905 38.3426 6.75767 38.2003 6.63569L36.2067 4.92798C35.8689 4.63865 36.0487 4.08539 36.492 4.04985L39.1086 3.84008C39.2955 3.8251 39.4583 3.70681 39.5303 3.5337L40.5384 1.10999Z"/>
<path d="M28.5384 1.10999C28.7092 0.69934 29.2909 0.699341 29.4617 1.10999L30.4698 3.5337C30.5418 3.70681 30.7046 3.8251 30.8915 3.84008L33.5081 4.04985C33.9514 4.08539 34.1312 4.63865 33.7934 4.92798L31.7998 6.63569C31.6574 6.75767 31.5953 6.94905 31.6388 7.13143L32.2478 9.68479C32.351 10.1174 31.8804 10.4593 31.5008 10.2275L29.2607 8.85921C29.1007 8.76148 28.8994 8.76148 28.7394 8.85921L26.4992 10.2275C26.1197 10.4593 25.6491 10.1174 25.7523 9.68479L26.3613 7.13143C26.4048 6.94905 26.3426 6.75767 26.2003 6.63569L24.2067 4.92798C23.8689 4.63865 24.0487 4.08539 24.492 4.04985L27.1086 3.84008C27.2955 3.8251 27.4583 3.70681 27.5303 3.5337L28.5384 1.10999Z"/>
<path d="M16.5384 1.10999C16.7092 0.69934 17.2909 0.699341 17.4617 1.10999L18.4698 3.5337C18.5418 3.70681 18.7046 3.8251 18.8915 3.84008L21.5081 4.04985C21.9514 4.08539 22.1312 4.63865 21.7934 4.92798L19.7998 6.63569C19.6574 6.75767 19.5953 6.94905 19.6388 7.13143L20.2478 9.68479C20.351 10.1174 19.8804 10.4593 19.5008 10.2275L17.2607 8.85921C17.1007 8.76148 16.8994 8.76148 16.7394 8.85921L14.4992 10.2275C14.1197 10.4593 13.6491 10.1174 13.7523 9.68479L14.3613 7.13143C14.4048 6.94905 14.3426 6.75767 14.2003 6.63569L12.2067 4.92798C11.8689 4.63865 12.0487 4.08539 12.492 4.04985L15.1086 3.84008C15.2955 3.8251 15.4583 3.70681 15.5303 3.5337L16.5384 1.10999Z"/>
<path d="M4.53838 1.10999C4.70918 0.69934 5.2909 0.699341 5.4617 1.10999L6.46978 3.5337C6.54178 3.70681 6.70459 3.8251 6.89148 3.84008L9.50808 4.04985C9.95141 4.08539 10.1312 4.63865 9.7934 4.92798L7.79983 6.63569C7.65744 6.75767 7.59525 6.94905 7.63875 7.13143L8.24782 9.68479C8.35102 10.1174 7.88039 10.4593 7.50084 10.2275L5.26067 8.85921C5.10066 8.76148 4.89942 8.76148 4.73941 8.85921L2.49924 10.2275C2.11969 10.4593 1.64907 10.1174 1.75226 9.68479L2.36133 7.13143C2.40483 6.94905 2.34265 6.75767 2.20025 6.63569L0.206679 4.92798C-0.131089 4.63865 0.0486745 4.08539 0.492002 4.04985L3.1086 3.84008C3.29549 3.8251 3.4583 3.70681 3.5303 3.5337L4.53838 1.10999Z"/>
</mask>
<path d="M52.5384 1.10999C52.7092 0.69934 53.2909 0.699341 53.4617 1.10999L54.4698 3.5337C54.5418 3.70681 54.7046 3.8251 54.8915 3.84008L57.5081 4.04985C57.9514 4.08539 58.1312 4.63865 57.7934 4.92798L55.7998 6.63569C55.6574 6.75767 55.5953 6.94905 55.6388 7.13143L56.2478 9.68479C56.351 10.1174 55.8804 10.4593 55.5008 10.2275L53.2607 8.85921C53.1007 8.76148 52.8994 8.76148 52.7394 8.85921L50.4992 10.2275C50.1197 10.4593 49.6491 10.1174 49.7523 9.68479L50.3613 7.13143C50.4048 6.94905 50.3426 6.75767 50.2003 6.63569L48.2067 4.92798C47.8689 4.63865 48.0487 4.08539 48.492 4.04985L51.1086 3.84008C51.2955 3.8251 51.4583 3.70681 51.5303 3.5337L52.5384 1.10999Z" stroke="#B3B3B3" stroke-width="2" mask="url(#path-1-inside-1)"/>
<path d="M40.5384 1.10999C40.7092 0.69934 41.2909 0.699341 41.4617 1.10999L42.4698 3.5337C42.5418 3.70681 42.7046 3.8251 42.8915 3.84008L45.5081 4.04985C45.9514 4.08539 46.1312 4.63865 45.7934 4.92798L43.7998 6.63569C43.6574 6.75767 43.5953 6.94905 43.6388 7.13143L44.2478 9.68479C44.351 10.1174 43.8804 10.4593 43.5008 10.2275L41.2607 8.85921C41.1007 8.76148 40.8994 8.76148 40.7394 8.85921L38.4992 10.2275C38.1197 10.4593 37.6491 10.1174 37.7523 9.68479L38.3613 7.13143C38.4048 6.94905 38.3426 6.75767 38.2003 6.63569L36.2067 4.92798C35.8689 4.63865 36.0487 4.08539 36.492 4.04985L39.1086 3.84008C39.2955 3.8251 39.4583 3.70681 39.5303 3.5337L40.5384 1.10999Z" stroke="#B3B3B3" stroke-width="2" mask="url(#path-1-inside-1)"/>
<path d="M28.5384 1.10999C28.7092 0.69934 29.2909 0.699341 29.4617 1.10999L30.4698 3.5337C30.5418 3.70681 30.7046 3.8251 30.8915 3.84008L33.5081 4.04985C33.9514 4.08539 34.1312 4.63865 33.7934 4.92798L31.7998 6.63569C31.6574 6.75767 31.5953 6.94905 31.6388 7.13143L32.2478 9.68479C32.351 10.1174 31.8804 10.4593 31.5008 10.2275L29.2607 8.85921C29.1007 8.76148 28.8994 8.76148 28.7394 8.85921L26.4992 10.2275C26.1197 10.4593 25.6491 10.1174 25.7523 9.68479L26.3613 7.13143C26.4048 6.94905 26.3426 6.75767 26.2003 6.63569L24.2067 4.92798C23.8689 4.63865 24.0487 4.08539 24.492 4.04985L27.1086 3.84008C27.2955 3.8251 27.4583 3.70681 27.5303 3.5337L28.5384 1.10999Z" stroke="#B3B3B3" stroke-width="2" mask="url(#path-1-inside-1)"/>
<path d="M16.5384 1.10999C16.7092 0.69934 17.2909 0.699341 17.4617 1.10999L18.4698 3.5337C18.5418 3.70681 18.7046 3.8251 18.8915 3.84008L21.5081 4.04985C21.9514 4.08539 22.1312 4.63865 21.7934 4.92798L19.7998 6.63569C19.6574 6.75767 19.5953 6.94905 19.6388 7.13143L20.2478 9.68479C20.351 10.1174 19.8804 10.4593 19.5008 10.2275L17.2607 8.85921C17.1007 8.76148 16.8994 8.76148 16.7394 8.85921L14.4992 10.2275C14.1197 10.4593 13.6491 10.1174 13.7523 9.68479L14.3613 7.13143C14.4048 6.94905 14.3426 6.75767 14.2003 6.63569L12.2067 4.92798C11.8689 4.63865 12.0487 4.08539 12.492 4.04985L15.1086 3.84008C15.2955 3.8251 15.4583 3.70681 15.5303 3.5337L16.5384 1.10999Z" stroke="#B3B3B3" stroke-width="2" mask="url(#path-1-inside-1)"/>
<path d="M4.53838 1.10999C4.70918 0.69934 5.2909 0.699341 5.4617 1.10999L6.46978 3.5337C6.54178 3.70681 6.70459 3.8251 6.89148 3.84008L9.50808 4.04985C9.95141 4.08539 10.1312 4.63865 9.7934 4.92798L7.79983 6.63569C7.65744 6.75767 7.59525 6.94905 7.63875 7.13143L8.24782 9.68479C8.35102 10.1174 7.88039 10.4593 7.50084 10.2275L5.26067 8.85921C5.10066 8.76148 4.89942 8.76148 4.73941 8.85921L2.49924 10.2275C2.11969 10.4593 1.64907 10.1174 1.75226 9.68479L2.36133 7.13143C2.40483 6.94905 2.34265 6.75767 2.20025 6.63569L0.206679 4.92798C-0.131089 4.63865 0.0486745 4.08539 0.492002 4.04985L3.1086 3.84008C3.29549 3.8251 3.4583 3.70681 3.5303 3.5337L4.53838 1.10999Z" stroke="#B3B3B3" stroke-width="2" mask="url(#path-1-inside-1)"/>
</svg>
