<svg width="39" height="29" viewBox="0 0 39 29" fill="none" xmlns="http://www.w3.org/2000/svg">
<path d="M22.2505 8.7436C22.2505 12.1417 24.9288 14.8965 28.2325 14.8965C31.5362 14.8965 34.2145 12.1417 34.2145 8.7436C34.2145 5.34547 31.5362 2.59073 28.2325 2.59073C24.9288 2.59073 22.2505 5.34547 22.2505 8.7436Z" fill="#E0E0E0"/>
<path d="M39 23.5105V25.9716C39 26.6513 38.4644 27.2022 37.8036 27.2022C37.1429 27.2022 36.5535 27.2022 36.5535 27.2022H36.1151H35.6767C35.6767 27.2022 35.0003 27.2022 33.0181 27.2022H23.4469H20.9044H20.2565C20.2565 27.2022 19.3221 27.2022 18.6614 27.2022C18.0006 27.2022 17.465 26.6513 17.465 25.9716V23.5105C17.465 20.1124 20.1432 17.3576 23.4469 17.3576H33.0181C36.3218 17.3576 39 20.1124 39 23.5105Z" fill="#E0E0E0"/>
<path d="M17.6153 8.7436C17.6153 12.1417 14.9371 14.8965 11.6333 14.8965C8.3296 14.8965 5.65139 12.1417 5.65139 8.7436C5.65139 5.34547 8.3296 2.59073 11.6333 2.59073C14.9371 2.59073 17.6153 5.34547 17.6153 8.7436Z" fill="#E0E0E0"/>
<path d="M0.865818 23.5105V25.9716C0.865818 26.6513 1.40146 27.2022 2.06221 27.2022C2.72296 27.2022 3.31233 27.2022 3.31233 27.2022H3.75073H4.18913C4.18913 27.2022 4.86553 27.2022 6.84778 27.2022H16.4189H18.9614H19.6093C19.6093 27.2022 20.5437 27.2022 21.2045 27.2022C21.8652 27.2022 22.4009 26.6513 22.4009 25.9716V23.5105C22.4009 20.1124 19.7227 17.3576 16.4189 17.3576H6.84778C3.54403 17.3576 0.865818 20.1124 0.865818 23.5105Z" fill="#E0E0E0"/>
<path d="M13.0406 7.97449C13.0406 11.7797 16.0596 14.8837 19.8074 14.8837C23.5551 14.8837 26.5742 11.7797 26.5742 7.97449C26.5742 4.16927 23.5551 1.06525 19.8074 1.06525C16.0596 1.06525 13.0406 4.16927 13.0406 7.97449ZM31.5876 25.9204V23.3567C31.5876 19.5515 28.5686 16.4474 24.8208 16.4474H14.7939C11.0462 16.4474 8.0271 19.5515 8.0271 23.3567V25.9204C8.0271 26.8938 8.80157 27.7022 9.78046 27.7022H9.78452H9.78859H9.79266H9.79674H9.80082H9.80491H9.80901H9.81312H9.81723H9.82134H9.82546H9.82959H9.83372H9.83786H9.84201H9.84616H9.85032H9.85448H9.85865H9.86282H9.867H9.87118H9.87537H9.87957H9.88376H9.88797H9.89218H9.89639H9.90061H9.90484H9.90907H9.9133H9.91754H9.92179H9.92604H9.93029H9.93455H9.93881H9.94308H9.94735H9.95162H9.9559H9.96019H9.96447H9.96877H9.97306H9.97736H9.98167H9.98597H9.99028H9.9946H9.99892H10.0032H10.0076H10.0119H10.0162H10.0206H10.0249H10.0292H10.0336H10.0379H10.0423H10.0467H10.051H10.0554H10.0597H10.0641H10.0685H10.0728H10.0772H10.0816H10.086H10.0904H10.0947H10.0991H10.1035H10.1079H10.1123H10.1167H10.1211H10.1255H10.1299H10.1343H10.1387H10.1431H10.1475H10.152H10.1564H10.1608H10.1652H10.1696H10.174H10.1785H10.1829H10.1873H10.1917H10.1962H10.2006H10.205H10.2094H10.2139H10.2183H10.2227H10.2272H10.2316H10.236H10.2405H10.2449H10.2493H10.2538H10.2582H10.2626H10.2671H10.2715H10.2759H10.2804H10.2848H10.2893H10.2937H10.2981H10.3026H10.307H10.3114H10.3159H10.3203H10.3247H10.3292H10.3336H10.338H10.3425H10.3469H10.3513H10.3558H10.3602H10.3646H10.369H10.3735H10.3779H10.3823H10.3867H10.3912H10.3956H10.4H10.4044H10.4088H10.4132H10.4176H10.422H10.4265H10.4309H10.4353H10.4397H10.4441H10.4485H10.4529H10.4572H10.4616H10.466H10.4704H10.4748H10.4792H10.4835H10.4879H10.4923H10.4967H10.501H10.5054H10.5098H10.5141H10.5185H10.5228H10.5272H10.5315H10.5359H10.5402H10.5445H10.5489H10.5532H10.5575H10.5619H10.5662H10.5705H10.5748H10.5791H10.5834H10.5877H10.592H10.5963H10.6006H10.6049H10.6091H10.6134H10.6177H10.622H10.6262H10.6305H10.6347H10.639H10.6432H10.6475H10.6517H10.6559H10.6602H10.6644H10.6686H10.6728H10.677H10.6812H10.6854H10.6896H10.6938H10.6979H10.7021H10.7063H10.7104H10.7146H10.7188H10.7229H10.727H10.7312H10.7353H10.7394H10.7435H10.7476H10.7518H10.7558H10.7599H10.764H10.7681H10.7722H10.7762H10.7803H10.7844H10.7884H10.7924H10.7965H10.8005H10.8045H10.8085H10.8125H10.8165H10.8205H10.8245H10.8285H10.8325H10.8364H10.8404H10.8443H10.8483H10.8522H10.8561H10.86H10.8639H10.8678H10.8717H10.8756H10.8795H10.8834H10.8872H10.8911H10.8949H10.8988H10.9026H10.9064H10.9102H10.914H10.9178H10.9216H10.9254H10.9292H10.9329H10.9367H10.9404H10.9442H10.9479H10.9516H10.9553H10.959H10.9627H10.9664H10.97H10.9737H10.9774H10.981H10.9846H10.9883H10.9919H10.9955H10.9991H11.0027H11.0062H11.0098H11.0134H11.0169H11.0204H11.024H11.0275H11.031H11.0345H11.038H11.0414H11.0449H11.0483H11.0518H11.0552H11.0586H11.062H11.0654H11.0688H11.0722H11.0756H11.0789H11.0823H11.0856H11.0889H11.0922H11.0955H11.0988H11.1021H11.1054H11.1086H11.1119H11.1151H11.1183H11.1215H11.1247H11.1279H11.1311H11.1342H11.1374H11.1405H11.1436H11.1467H11.1498H11.1529H11.156H11.1591H11.1621H11.1651H11.1682H11.1712H11.1742H11.1772H11.1801H11.1831H11.186H11.189H11.1919H11.1948H11.1977H11.2006H11.2034H11.2063H11.2091H11.212H11.2148H11.2176H11.2204H11.2231H11.2259H11.2286H11.2314H11.2341H11.2368H11.2395H11.2422H11.2448H11.2475H11.2501H11.2527H11.2553H11.2579H11.2605H11.263H11.2656H11.2681H11.2706H11.2731H11.2756H11.2781H11.2806H11.283H11.2854H11.2878H11.2902H11.2926H11.295H11.2973H11.2997H11.302H11.3043H11.3066H11.3089H11.3111H11.3134H11.3156H11.3178H11.32H11.3222H11.3243H11.3265H11.3286H11.3307H11.3328H11.3349H11.337H11.339H11.341H11.3431H11.3451H11.347H11.349H11.351H11.3529H11.3548H11.3567H11.3586H11.3605H11.3623H11.3641H11.3659H11.3677H11.3695H11.3713H11.373H11.3748H11.3765H11.3782H11.3798H11.3815H11.3831H11.3847H11.3863H11.3879H11.3895H11.391H11.3926H11.3941H11.3956H11.3971H11.3985H11.4H11.4014H11.4028H11.4042H11.4055H11.4069H11.4082H11.4095H11.4108H11.4121H11.4133H11.4146H11.4158H11.417H11.4181H11.4193H11.4204H11.4215H11.4226H11.4237H11.4248H11.4258H11.4268H11.4278H11.4288H11.4298H11.4307H11.4316H11.4326H11.4334H11.4343H11.4351H11.436H11.4368H11.4375H11.4383H11.439H11.4398H11.4405H11.4411H11.4418H11.4424H11.443H11.4436H11.4442H11.4448H11.4453H11.4458H11.4463H11.4468H11.4472H11.4476H11.448H11.4484H11.4488H11.4491H11.4494H11.4497H11.45H11.4503H11.4505H11.4507H11.4509H11.4511H11.4512H11.4513H11.4514H11.4515H11.4516H11.4516H12.1303H14.7939H24.8208H24.833H24.8451H24.8572H24.8692H24.8813H24.8933H24.9052H24.9172H24.9291H24.9409H24.9528H24.9646H24.9764H24.9881H24.9998H25.0115H25.0232H25.0348H25.0464H25.058H25.0695H25.081H25.0925H25.1039H25.1153H25.1267H25.138H25.1494H25.1606H25.1719H25.1831H25.1943H25.2055H25.2166H25.2277H25.2388H25.2498H25.2609H25.2718H25.2828H25.2937H25.3046H25.3155H25.3263H25.3371H25.3479H25.3586H25.3693H25.38H25.3907H25.4013H25.4119H25.4225H25.433H25.4435H25.454H25.4644H25.4748H25.4852H25.4956H25.5059H25.5162H25.5265H25.5367H25.5469H25.5571H25.5673H25.5774H25.5875H25.5975H25.6076H25.6176H25.6276H25.6375H25.6474H25.6573H25.6672H25.677H25.6868H25.6966H25.7063H25.716H25.7257H25.7354H25.745H25.7546H25.7642H25.7737H25.7832H25.7927H25.8021H25.8116H25.821H25.8303H25.8397H25.849H25.8583H25.8675H25.8768H25.886H25.8951H25.9043H25.9134H25.9225H25.9315H25.9406H25.9496H25.9585H25.9675H25.9764H25.9853H25.9941H26.003H26.0118H26.0205H26.0293H26.038H26.0467H26.0554H26.064H26.0726H26.0812H26.0897H26.0983H26.1068H26.1152H26.1237H26.1321H26.1405H26.1488H26.1572H26.1655H26.1738H26.182H26.1902H26.1984H26.2066H26.2147H26.2229H26.2309H26.239H26.247H26.255H26.263H26.271H26.2789H26.2868H26.2947H26.3025H26.3103H26.3181H26.3259H26.3336H26.3413H26.349H26.3567H26.3643H26.3719H26.3795H26.387H26.3945H26.402H26.4095H26.4169H26.4244H26.4317H26.4391H26.4464H26.4537H26.461H26.4683H26.4755H26.4827H26.4899H26.4971H26.5042H26.5113H26.5184H26.5254H26.5324H26.5394H26.5464H26.5533H26.5603H26.5672H26.574H26.5809H26.5877H26.5945H26.6012H26.608H26.6147H26.6214H26.628H26.6347H26.6413H26.6479H26.6544H26.6609H26.6675H26.6739H26.6804H26.6868H26.6932H26.6996H26.706H26.7123H26.7186H26.7249H26.7311H26.7374H26.7436H26.7498H26.7559H26.762H26.7681H26.7742H26.7803H26.7863H26.7923H26.7983H26.8042H26.8102H26.8161H26.822H26.8278H26.8337H26.8395H26.8452H26.851H26.8567H26.8624H26.8681H26.8738H26.8794H26.885H26.8906H26.8962H26.9017H26.9072H26.9127H26.9182H26.9236H26.9291H26.9344H26.9398H26.9452H26.9505H26.9558H26.9611H26.9663H26.9715H26.9767H26.9819H26.9871H26.9922H26.9973H27.0024H27.0074H27.0125H27.0175H27.0225H27.0274H27.0324H27.0373H27.0422H27.0471H27.0519H27.0567H27.0615H27.0663H27.0711H27.0758H27.0805H27.0852H27.0898H27.0945H27.0991H27.1037H27.1082H27.1128H27.1173H27.1218H27.1263H27.1307H27.1352H27.1396H27.144H27.1483H27.1527H27.157H27.1613H27.1655H27.1698H27.174H27.1782H27.1824H27.1865H27.1907H27.1948H27.1989H27.2029H27.207H27.211H27.215H27.219H27.2229H27.2269H27.2308H27.2347H27.2385H27.2424H27.2462H27.25H27.2538H27.2575H27.2613H27.265H27.2687H27.2724H27.276H27.2796H27.2832H27.2868H27.2904H27.2939H27.2974H27.3009H27.3044H27.3078H27.3113H27.3147H27.3181H27.3214H27.3248H27.3281H27.3314H27.3347H27.3379H27.3412H27.3444H27.3476H27.3507H27.3539H27.357H27.3601H27.3632H27.3663H27.3693H27.3724H27.3754H27.3783H27.3813H27.3843H27.3872H27.3901H27.3929H27.3958H27.3986H27.4015H27.4043H27.407H27.4098H27.4125H27.4152H27.4179H27.4206H27.4232H27.4259H27.4285H27.4311H27.4336H27.4362H27.4387H27.4412H27.4437H27.4462H27.4486H27.4511H27.4535H27.4559H27.4582H27.4606H27.4629H27.4652H27.4675H27.4698H27.472H27.4742H27.4765H27.4786H27.4808H27.483H27.4851H27.4872H27.4893H27.4914H27.4934H27.4954H27.4974H27.4994H27.5014H27.5034H27.5053H27.5072H27.5091H27.511H27.5128H27.5147H27.5165H27.5183H27.5201H27.5218H27.5236H27.5253H27.527H27.5287H27.5303H27.532H27.5336H27.5352H27.5368H27.5384H27.5399H27.5415H27.543H27.5445H27.5459H27.5474H27.5488H27.5503H27.5517H27.553H27.5544H27.5557H27.5571H27.5584H27.5597H27.5609H27.5622H27.5634H27.5647H27.5659H27.567H27.5682H27.5693H27.5705H27.5716H27.5727H27.5737H27.5748H27.5758H27.5768H27.5778H27.5788H27.5798H27.5807H27.5817H27.5826H27.5835H27.5843H27.5852H27.586H27.5868H27.5877H27.5884H27.5892H27.59H27.5907H27.5914H27.5921H27.5928H27.5934H27.5941H27.5947H27.5953H27.5959H27.5965H27.5971H27.5976H27.5981H27.5986H27.5991H27.5996H27.6001H27.6005H27.6009H27.6013H27.6017H27.6021H27.6025H27.6028H27.6031H27.6034H27.6037H27.604H27.6042H27.6045H27.6047H27.6049H27.6051H27.6053H27.6054H27.6056H27.6057H27.6058H27.6059H27.6059H27.606H27.606H27.6061H28.0654H28.5246H28.5247H28.5247H28.5247H28.5248H28.5249H28.525H28.5251H28.5252H28.5253H28.5255H28.5256H28.5258H28.526H28.5262H28.5264H28.5267H28.5269H28.5272H28.5274H28.5277H28.528H28.5283H28.5286H28.529H28.5293H28.5297H28.5301H28.5305H28.5309H28.5313H28.5317H28.5322H28.5326H28.5331H28.5336H28.5341H28.5346H28.5351H28.5357H28.5362H28.5368H28.5374H28.538H28.5386H28.5392H28.5398H28.5405H28.5411H28.5418H28.5425H28.5432H28.5439H28.5446H28.5453H28.5461H28.5468H28.5476H28.5484H28.5492H28.55H28.5508H28.5517H28.5525H28.5534H28.5542H28.5551H28.556H28.5569H28.5579H28.5588H28.5597H28.5607H28.5617H28.5627H28.5637H28.5647H28.5657H28.5667H28.5678H28.5688H28.5699H28.571H28.5721H28.5732H28.5743H28.5754H28.5766H28.5777H28.5789H28.5801H28.5813H28.5825H28.5837H28.5849H28.5862H28.5874H28.5887H28.59H28.5912H28.5925H28.5939H28.5952H28.5965H28.5979H28.5992H28.6006H28.602H28.6033H28.6047H28.6062H28.6076H28.609H28.6105H28.6119H28.6134H28.6149H28.6164H28.6179H28.6194H28.6209H28.6225H28.624H28.6256H28.6271H28.6287H28.6303H28.6319H28.6335H28.6352H28.6368H28.6384H28.6401H28.6418H28.6435H28.6452H28.6469H28.6486H28.6503H28.652H28.6538H28.6555H28.6573H28.6591H28.6609H28.6627H28.6645H28.6663H28.6681H28.67H28.6718H28.6737H28.6756H28.6774H28.6793H28.6812H28.6832H28.6851H28.687H28.689H28.6909H28.6929H28.6949H28.6968H28.6988H28.7008H28.7029H28.7049H28.7069H28.709H28.711H28.7131H28.7152H28.7173H28.7194H28.7215H28.7236H28.7257H28.7278H28.73H28.7321H28.7343H28.7365H28.7387H28.7409H28.7431H28.7453H28.7475H28.7497H28.752H28.7542H28.7565H28.7588H28.761H28.7633H28.7656H28.7679H28.7703H28.7726H28.7749H28.7773H28.7796H28.782H28.7844H28.7867H28.7891H28.7915H28.7939H28.7964H28.7988H28.8012H28.8037H28.8061H28.8086H28.8111H28.8136H28.816H28.8185H28.8211H28.8236H28.8261H28.8286H28.8312H28.8337H28.8363H28.8389H28.8414H28.844H28.8466H28.8492H28.8518H28.8545H28.8571H28.8597H28.8624H28.865H28.8677H28.8704H28.873H28.8757H28.8784H28.8811H28.8839H28.8866H28.8893H28.892H28.8948H28.8975H28.9003H28.9031H28.9059H28.9086H28.9114H28.9142H28.9171H28.9199H28.9227H28.9255H28.9284H28.9312H28.9341H28.937H28.9398H28.9427H28.9456H28.9485H28.9514H28.9543H28.9572H28.9602H28.9631H28.966H28.969H28.9719H28.9749H28.9779H28.9809H28.9838H28.9868H28.9898H28.9929H28.9959H28.9989H29.0019H29.005H29.008H29.0111H29.0141H29.0172H29.0203H29.0234H29.0264H29.0295H29.0326H29.0357H29.0389H29.042H29.0451H29.0483H29.0514H29.0546H29.0577H29.0609H29.064H29.0672H29.0704H29.0736H29.0768H29.08H29.0832H29.0864H29.0897H29.0929H29.0961H29.0994H29.1026H29.1059H29.1092H29.1124H29.1157H29.119H29.1223H29.1256H29.1289H29.1322H29.1355H29.1388H29.1421H29.1455H29.1488H29.1522H29.1555H29.1589H29.1622H29.1656H29.169H29.1724H29.1758H29.1791H29.1825H29.186H29.1894H29.1928H29.1962H29.1996H29.2031H29.2065H29.21H29.2134H29.2169H29.2203H29.2238H29.2273H29.2307H29.2342H29.2377H29.2412H29.2447H29.2482H29.2517H29.2553H29.2588H29.2623H29.2658H29.2694H29.2729H29.2765H29.28H29.2836H29.2872H29.2907H29.2943H29.2979H29.3015H29.3051H29.3087H29.3123H29.3159H29.3195H29.3231H29.3267H29.3303H29.334H29.3376H29.3413H29.3449H29.3486H29.3522H29.3559H29.3595H29.3632H29.3669H29.3706H29.3742H29.3779H29.3816H29.3853H29.389H29.3927H29.3964H29.4001H29.4039H29.4076H29.4113H29.415H29.4188H29.4225H29.4263H29.43H29.4338H29.4375H29.4413H29.445H29.4488H29.4526H29.4564H29.4602H29.4639H29.4677H29.4715H29.4753H29.4791H29.4829H29.4867H29.4905H29.4944H29.4982H29.502H29.5058H29.5097H29.5135H29.5173H29.5212H29.525H29.5289H29.5327H29.5366H29.5405H29.5443H29.5482H29.5521H29.5559H29.5598H29.5637H29.5676H29.5715H29.5754H29.5793H29.5832H29.5871H29.591H29.5949H29.5988H29.6027H29.6066H29.6105H29.6145H29.6184H29.6223H29.6262H29.6302H29.6341H29.6381H29.642H29.646H29.6499H29.6539H29.6578H29.6618H29.6657H29.6697H29.6737H29.6776H29.6816H29.6856H29.6896H29.6935H29.6975H29.7015H29.7055H29.7095H29.7135H29.7175H29.7215H29.7255H29.7295H29.7335H29.7375H29.7415H29.7455H29.7495H29.7535H29.7575H29.7616H29.7656H29.7696H29.7736H29.7777H29.7817H29.7857H29.7898H29.7938H29.7978H29.8019H29.8059H29.81H29.814H29.8181H29.8221H29.8262H29.8302H29.8343C30.8132 27.7022 31.5876 26.8938 31.5876 25.9204Z" fill="#E0E0E0" stroke="white"/>
</svg>
