<svg width="22" height="23" viewBox="0 0 22 23" fill="none" xmlns="http://www.w3.org/2000/svg">
<path d="M5.11668 5.74994C5.11668 8.92558 7.72835 11.4999 10.95 11.4999C14.1717 11.4999 16.7833 8.92558 16.7833 5.74994C16.7833 2.5743 14.1717 -6.10352e-05 10.95 -6.10352e-05C7.72835 -6.10352e-05 5.11668 2.5743 5.11668 5.74994Z" fill="#AAAAAA"/>
<path d="M21.45 19.5499V21.8499C21.45 22.4851 20.9277 22.9999 20.2833 22.9999C19.639 22.9999 19.0643 22.9999 19.0643 22.9999H18.6368H18.2093C18.2093 22.9999 17.5497 22.9999 15.6167 22.9999H6.28335H3.80401H3.17223C3.17223 22.9999 2.26101 22.9999 1.61668 22.9999C0.972347 22.9999 0.450012 22.4851 0.450012 21.8499V19.5499C0.450012 16.3743 3.06168 13.7999 6.28335 13.7999H15.6167C18.8383 13.7999 21.45 16.3743 21.45 19.5499Z" fill="#AAAAAA"/>
</svg>
