<svg width="32" height="27" viewBox="0 0 32 27" fill="none" xmlns="http://www.w3.org/2000/svg">
<path fill-rule="evenodd" clip-rule="evenodd" d="M1 27C0.447715 27 0 26.5604 0 26.0182V4.41818C0 3.87594 0.447715 3.43636 1 3.43636H6.91976C7.27862 3.43636 7.60996 3.24757 7.788 2.94166L9.21216 0.4947C9.3902 0.18879 9.72155 0 10.0804 0H21.9198C22.2786 0 22.61 0.18879 22.788 0.4947L24.2122 2.94166C24.3902 3.24757 24.7215 3.43636 25.0804 3.43636H31C31.5523 3.43636 32 3.87594 32 4.41818V26.0182C32 26.5604 31.5523 27 31 27H1ZM22.5001 15.2182C22.5001 11.6936 19.5899 8.83636 16.0001 8.83636C12.4102 8.83636 9.50008 11.6936 9.50008 15.2182C9.50008 18.7428 12.4102 21.6 16.0001 21.6C19.5899 21.6 22.5001 18.7428 22.5001 15.2182ZM26 7.85455C26 7.04118 26.6716 6.38182 27.5 6.38182C28.3284 6.38182 29 7.04118 29 7.85455C29 8.66791 28.3284 9.32727 27.5 9.32727C26.6716 9.32727 26 8.66791 26 7.85455Z" fill="#E0E0E0"/>
<path d="M16.0001 11.2909C13.7909 11.2909 12.0001 13.0492 12.0001 15.2182C12.0001 17.3872 13.7909 19.1455 16.0001 19.1455C18.2092 19.1455 20.0001 17.3872 20.0001 15.2182C20.0001 13.0492 18.2092 11.2909 16.0001 11.2909Z" fill="#E0E0E0"/>
</svg>
