<svg width="26" height="26" viewBox="0 0 26 26" fill="none" xmlns="http://www.w3.org/2000/svg">
<path d="M25.25 13C25.25 19.7655 19.7655 25.25 13 25.25C6.23451 25.25 0.75 19.7655 0.75 13C0.75 6.23451 6.23451 0.75 13 0.75C19.7655 0.75 25.25 6.23451 25.25 13Z" stroke="#AAAAAA" stroke-width="1.5"/>
<path d="M13.75 7C13.75 6.58579 13.4142 6.25 13 6.25C12.5858 6.25 12.25 6.58579 12.25 7H13.75ZM13 13H12.25C12.25 13.1989 12.329 13.3897 12.4697 13.5303L13 13ZM15.4697 16.5303C15.7626 16.8232 16.2374 16.8232 16.5303 16.5303C16.8232 16.2374 16.8232 15.7626 16.5303 15.4697L15.4697 16.5303ZM12.25 7V13H13.75V7H12.25ZM12.4697 13.5303L15.4697 16.5303L16.5303 15.4697L13.5303 12.4697L12.4697 13.5303Z" fill="#AAAAAA"/>
</svg>
