<svg width="20" height="22" viewBox="0 0 20 22" fill="none" xmlns="http://www.w3.org/2000/svg">
<path d="M1.75 14.5C1.75 14.0858 1.41421 13.75 1 13.75C0.585786 13.75 0.25 14.0858 0.25 14.5H1.75ZM1 21H0.25C0.25 21.4142 0.585786 21.75 1 21.75L1 21ZM19 21V21.75C19.4142 21.75 19.75 21.4142 19.75 21H19ZM19.75 14.5C19.75 14.0858 19.4142 13.75 19 13.75C18.5858 13.75 18.25 14.0858 18.25 14.5H19.75ZM0.25 14.5V21H1.75V14.5H0.25ZM1 21.75H19V20.25H1V21.75ZM19.75 21V14.5H18.25V21H19.75Z" fill="#555555"/>
<path d="M9.25 14.5C9.25 14.9142 9.58579 15.25 10 15.25C10.4142 15.25 10.75 14.9142 10.75 14.5H9.25ZM10 1L10.5303 0.46967C10.2374 0.176777 9.76256 0.176777 9.46967 0.46967L10 1ZM5.46967 4.46967C5.17678 4.76256 5.17678 5.23744 5.46967 5.53033C5.76256 5.82322 6.23744 5.82322 6.53033 5.53033L5.46967 4.46967ZM13.4697 5.53033C13.7626 5.82322 14.2374 5.82322 14.5303 5.53033C14.8232 5.23744 14.8232 4.76256 14.5303 4.46967L13.4697 5.53033ZM10.75 14.5V1H9.25V14.5H10.75ZM9.46967 0.46967L5.46967 4.46967L6.53033 5.53033L10.5303 1.53033L9.46967 0.46967ZM9.46967 1.53033L13.4697 5.53033L14.5303 4.46967L10.5303 0.46967L9.46967 1.53033Z" fill="#555555"/>
</svg>
