<svg width="23" height="23" viewBox="0 0 23 23" fill="none" xmlns="http://www.w3.org/2000/svg">
<path fill-rule="evenodd" clip-rule="evenodd" d="M11.5026 15.525C9.22084 15.525 7.36469 13.7195 7.36469 11.5C7.36469 9.28047 9.22084 7.47497 11.5026 7.47497C13.7844 7.47497 15.6405 9.28047 15.6405 11.5C15.6405 13.7195 13.7844 15.525 11.5026 15.525ZM20.2868 12.627C20.3341 12.259 20.3696 11.891 20.3696 11.5C20.3696 11.109 20.3341 10.741 20.2868 10.373L22.7814 8.4755C23.006 8.303 23.0651 7.9925 22.9233 7.7395L20.5587 3.7605C20.4169 3.5075 20.0977 3.4155 19.8376 3.5075L16.8937 4.6575C16.2789 4.1975 15.6169 3.818 14.8957 3.5305L14.4464 0.483C14.411 0.207 14.1627 0 13.8671 0H9.13809C8.84252 0 8.59425 0.207 8.55878 0.483L8.10952 3.5305C7.38834 3.818 6.72628 4.209 6.1115 4.6575L3.16767 3.5075C2.89575 3.404 2.58836 3.5075 2.44649 3.7605L0.0819681 7.7395C-0.0717259 7.9925 -0.000790221 8.303 0.223839 8.4755L2.71841 10.373C2.67112 10.741 2.63565 11.1205 2.63565 11.5C2.63565 11.8795 2.67112 12.259 2.71841 12.627L0.223839 14.5245C-0.000790221 14.697 -0.0599033 15.0075 0.0819681 15.2605L2.44649 19.2395C2.58836 19.4925 2.90757 19.5845 3.16767 19.4925L6.1115 18.3425C6.72628 18.8025 7.38834 19.182 8.10952 19.4695L8.55878 22.517C8.59425 22.793 8.84252 23 9.13809 23H13.8671C14.1627 23 14.411 22.793 14.4464 22.517L14.8957 19.4695C15.6169 19.182 16.2789 18.791 16.8937 18.3425L19.8376 19.4925C20.1095 19.596 20.4169 19.4925 20.5587 19.2395L22.9233 15.2605C23.0651 15.0075 23.006 14.697 22.7814 14.5245L20.2868 12.627Z" fill="#AAAAAA"/>
</svg>
