<svg width="38" height="38" viewBox="0 0 38 38" fill="none" xmlns="http://www.w3.org/2000/svg">
<g clip-path="url(#clip0)">
<path d="M37.9784 6.87548C37.9784 6.87422 37.9778 6.87232 37.9778 6.87105C37.9632 6.792 37.936 6.7199 37.8943 6.65412C37.8937 6.65349 37.8937 6.65222 37.8937 6.65159C37.893 6.65033 37.8918 6.64969 37.8911 6.64843C37.8513 6.58645 37.8032 6.53332 37.7444 6.48842C37.7324 6.47893 37.7197 6.47197 37.7071 6.46312C37.6597 6.43213 37.611 6.4062 37.5559 6.38912C37.5212 6.3771 37.4857 6.37331 37.4497 6.36762C37.4219 6.36382 37.3972 6.35117 37.3681 6.35117H37.3656C37.3409 6.35054 37.3238 6.35307 37.3061 6.35497C37.3004 6.3556 37.2954 6.35497 37.2897 6.3556C37.284 6.35623 37.2777 6.3556 37.2713 6.35687C37.2543 6.3594 37.2372 6.36192 37.2207 6.36572L0.504629 13.9533C0.243424 14.0077 0.0435669 14.2196 0.00625182 14.484C-0.0310632 14.7483 0.101121 15.0076 0.337028 15.1322L10.8561 20.6808L12.701 30.9184C12.6997 30.926 12.7016 30.9342 12.701 30.9418C12.6946 30.9924 12.694 31.0417 12.7003 31.0917C12.7035 31.117 12.7066 31.141 12.713 31.1657C12.7275 31.2258 12.7509 31.2821 12.7825 31.3352C12.7889 31.3453 12.7889 31.3573 12.7958 31.3674C12.7977 31.3706 12.8009 31.3731 12.8034 31.3757C12.8116 31.3877 12.823 31.3972 12.8325 31.4092C12.8622 31.4459 12.8932 31.4794 12.9286 31.5078C12.9343 31.5123 12.9381 31.5192 12.9445 31.5237C12.9539 31.5306 12.9647 31.5325 12.9742 31.5388C13.0128 31.5641 13.0526 31.585 13.095 31.6014C13.1121 31.6078 13.1279 31.6154 13.1456 31.6204C13.2025 31.6369 13.2613 31.6483 13.3208 31.6483C13.3214 31.6483 13.322 31.6483 13.3227 31.6483C13.3252 31.6483 13.3277 31.647 13.3303 31.647C13.341 31.6476 13.3518 31.6483 13.3625 31.6483C13.5377 31.6483 13.6958 31.5698 13.8128 31.449L20.8198 26.7777L28.1563 31.5464C28.2601 31.6135 28.3802 31.6483 28.501 31.6483C28.5674 31.6483 28.6351 31.6375 28.7003 31.616C28.8824 31.5553 29.0279 31.4149 29.0943 31.234L37.9082 7.31125C37.967 7.21574 38.0006 7.10253 38.0006 6.98173C37.9999 6.94505 37.9847 6.91153 37.9784 6.87548ZM30.6514 11.1275L15.4768 22.2853C15.4521 22.3037 15.4325 22.3264 15.411 22.3479C15.4028 22.3555 15.3946 22.3619 15.3876 22.3701C15.3744 22.3846 15.3623 22.3992 15.3503 22.415C15.3389 22.4302 15.3301 22.446 15.32 22.4618C15.2966 22.4997 15.277 22.5389 15.2618 22.5807C15.2586 22.5889 15.2536 22.5952 15.251 22.6035C15.2504 22.606 15.2479 22.6073 15.2472 22.6098L13.508 28.2621L12.1298 20.615L30.6514 11.1275ZM14.4883 29.4789L16.2124 23.7843L18.8965 25.5292L19.6643 26.0282L17.0561 27.7669L14.4883 29.4789Z" fill="#AAAAAA"/>
</g>
<defs>
<clipPath id="clip0">
<rect width="38" height="38" fill="white"/>
</clipPath>
</defs>
</svg>
