<svg width="33" height="37" viewBox="0 0 33 37" fill="none" xmlns="http://www.w3.org/2000/svg">
<path d="M7.33333 9.25C7.33333 14.3586 11.4374 18.5 16.5 18.5C21.5626 18.5 25.6667 14.3586 25.6667 9.25C25.6667 4.14137 21.5626 0 16.5 0C11.4374 0 7.33333 4.14137 7.33333 9.25Z" fill="#E0E0E0"/>
<path d="M33 31.45V35.15C33 36.1717 32.1792 37 31.1667 37C30.1541 37 29.251 37 29.251 37H28.5792H27.9074C27.9074 37 26.8709 37 23.8333 37H9.16667H5.27057H4.27778C4.27778 37 2.84586 37 1.83333 37C0.820811 37 0 36.1717 0 35.15V31.45C0 26.3414 4.10406 22.2 9.16667 22.2H23.8333C28.8959 22.2 33 26.3414 33 31.45Z" fill="#E0E0E0"/>
</svg>
